<?xml version="1.0" encoding="utf-8"?>
<!-- Generator: Adobe Illustrator 15.0.0, SVG Export Plug-In . SVG Version: 6.00 Build 0)  -->
<!DOCTYPE svg PUBLIC "-//W3C//DTD SVG 1.1//EN" "http://www.w3.org/Graphics/SVG/1.1/DTD/svg11.dtd">
<svg version="1.1" id="图层_1" xmlns="http://www.w3.org/2000/svg" xmlns:xlink="http://www.w3.org/1999/xlink" x="0px" y="0px"
	 width="298.551px" height="200px" viewBox="0 0 298.551 200" enable-background="new 0 0 298.551 200" xml:space="preserve">
<g>
	<g>
		<path fill-rule="evenodd" clip-rule="evenodd" d="M221.945,121.195c-14.145,0-28.289,0-42.434,0
			c-15.789-23.501-28.778-49.801-43.78-74.09c9.863-7.201,21.552-12.575,31.657-19.533
			C186.098,57.808,205.379,91.063,221.945,121.195z"/>
		<path fill-rule="evenodd" clip-rule="evenodd" d="M164.021,120.522c-13.247,1.57-29.41,0.225-43.78,0.673
			c-8.236-13.542-15.539-28.017-24.248-41.086c9.945-7.118,21.291-12.835,31.657-19.533
			C141.152,79.179,151.438,100.999,164.021,120.522z"/>
		<path fill-rule="evenodd" clip-rule="evenodd" d="M106.096,120.522c-13.023,1.57-28.961,0.225-43.106,0.673
			c-3.159-2.005-4.571-5.757-6.062-9.43c11.302-5.761,21.93-12.196,32.33-18.859C95.55,101.432,99.917,111.882,106.096,120.522z"/>
		<path fill-rule="evenodd" clip-rule="evenodd" d="M108.117,129.278c2.918,0,5.837,0,8.756,0c0,16.614,0,33.228,0,49.842
			c-3.478-0.564-10.009,1.926-8.756-3.368c-30.748,18.372-43.367-39.086-8.756-35.698c3.625,0.355,5.205,1.752,8.756,3.368
			C108.117,138.708,108.117,133.993,108.117,129.278z M85.89,162.955c2.468,10.207,19.711,10.405,22.227,0
			c2.367-9.787-4.103-16.697-14.145-14.145C88.262,150.262,83.765,154.168,85.89,162.955z"/>
		<path fill-rule="evenodd" clip-rule="evenodd" d="M123.608,129.278c2.693,0,5.388,0,8.082,0c0,2.694,0,5.388,0,8.083
			c-2.67-0.249-6.454,0.617-8.082-0.673C123.608,134.217,123.608,131.748,123.608,129.278z"/>
		<path fill-rule="evenodd" clip-rule="evenodd" d="M168.062,129.278c2.694,0,5.389,0,8.083,0c0,16.614,0,33.228,0,49.842
			c-2.694,0-5.389,0-8.083,0c0-1.347,0-2.694,0-4.042c-30.025,20.534-45.015-38.507-9.429-35.024
			c3.625,0.355,5.204,1.752,8.756,3.368C168.951,140.045,167.62,133.775,168.062,129.278z M145.161,157.567
			c-1.794,14.938,19.217,17.648,22.228,5.388c2.533-10.319-5.191-16.42-14.145-14.145
			C147.303,150.321,145.532,154.479,145.161,157.567z"/>
		<path fill-rule="evenodd" clip-rule="evenodd" d="M255.623,152.178c-9.063,2.832-15.186-14.388-21.554-1.347
			c7.066,6.885,21.37,2.012,22.9,13.471c2.503,18.744-31.843,20.161-32.33,1.347c9.101-1.728,15.448,13.502,23.574,2.021
			c-2.443-8.194-33.013-4.88-21.554-22.9C232.595,135.436,257.28,138.322,255.623,152.178z"/>
		<path fill-rule="evenodd" clip-rule="evenodd" d="M63.663,143.422c1.46,0.113,0.305-2.389,0.673-3.368c2.919,0,5.837,0,8.756,0
			c0,12.797,0,25.595,0,38.392c-2.919,0-5.837,0-8.756,0c0-1.123,0-2.245,0-3.368c-11.702,8.792-28.005,0.957-30.309-10.776
			C30.625,146.982,47.74,133.902,63.663,143.422z M53.56,171.038c13.79-0.599,13.98-26.339-3.368-22.227
			C37.026,151.931,40.145,171.62,53.56,171.038z"/>
		<path fill-rule="evenodd" clip-rule="evenodd" d="M211.169,143.422c1.46,0.113,0.305-2.389,0.674-3.368c2.693,0,5.388,0,8.082,0
			c0,12.797,0,25.595,0,38.392c-2.835-0.757-9.26,2.075-8.082-2.694c-14.349,7.716-30.005-0.471-30.983-14.818
			C179.837,145.945,195.916,134.282,211.169,143.422z M188.941,161.608c2.044,14.55,26.728,11.282,22.228-6.062
			c-1.101-4.24-5.702-8.963-14.145-6.735C191.357,150.306,187.839,153.756,188.941,161.608z"/>
		<path fill-rule="evenodd" clip-rule="evenodd" d="M131.69,140.728c0,12.797,0,25.595,0,38.392
			c-2.67-0.249-6.454,0.617-8.082-0.673c0-12.573,0-25.146,0-37.719C126.302,140.728,128.996,140.728,131.69,140.728z"/>
	</g>
</g>
</svg>
