<?xml version="1.0" encoding="utf-8"?>
<!-- Generator: Adobe Illustrator 23.1.1, SVG Export Plug-In . SVG Version: 6.00 Build 0)  -->
<svg xmlns="http://www.w3.org/2000/svg" xmlns:xlink="http://www.w3.org/1999/xlink" version="1.1" id="Layer_1" x="0px" y="0px" viewBox="0 0 400 300" style="enable-background:new 0 0 400 300;" xml:space="preserve">

<g>
	<polygon points="397.5,183.94 383.51,183.94 373.61,156.68 373.52,156.68 373.52,183.94 360.2,183.94 360.2,116.51 373.52,116.51    373.52,141.42 373.61,141.42 383.26,116.51 397.12,116.51 384.06,147.57 397.5,183.94 397.5,183.94  "/>
	<path d="M356.29,183.44c-1.03,0.43-2.51,0.78-4.21,0.97h-6.29c-12.38-1.31-16.86-10.62-16.86-34.85c0-25.54,5.69-33.88,20.19-33.88   c3.46,0,5.64,0.59,7.08,1.18v12.48c-0.93-0.67-2.53-1.35-5.39-1.35c-5.9,0-8.43,2.95-8.43,21.41c0,20.73,2.52,23.09,8.68,23.09   c1.77,0,3.79-0.5,5.23-1.26V183.44L356.29,183.44L356.29,183.44z"/>
	<polygon points="285.48,129.16 275.37,129.16 275.37,183.94 262.14,183.94 262.14,129.16 252.53,129.16 252.53,116.51    285.48,116.51 285.48,129.16 285.48,129.16  "/>
	<path d="M254.76,165.74c0,10.9-7.19,17.7-17.01,18.67h-5.95c-4.33-0.33-6.63-1.27-8.47-2.15v-12.81c1.81,1.35,5.19,3.33,10.16,3.33   c5.52,0,8.26-2.49,8.26-6.83c0-3.83-1.9-6.36-9.73-13.69c-6.83-6.39-9.65-11.38-9.65-18.92c0-11.5,7.88-17.49,18.91-17.49   c4.35,0,7.04,0.84,8.14,1.39v12.26c-0.84-0.42-3.12-1.26-6.62-1.26c-4.72,0-6.82,1.98-6.82,5.35c0,2.82,0.49,4.8,7.92,11.55   C252.11,152.59,254.76,158.49,254.76,165.74L254.76,165.74L254.76,165.74z"/>
	<polygon points="218.35,183.94 208.28,183.94 195.93,152.13 195.85,152.13 195.76,152.13 195.76,183.94 183.84,183.94    183.84,116.51 193.79,116.51 206.17,146.15 206.26,146.15 206.26,116.51 218.35,116.51 218.35,183.94 218.35,183.94  "/>
	<polygon points="176.76,183.94 148.14,183.94 148.14,116.51 176.76,116.51 176.76,129.16 161.38,129.16 161.38,142.31    176.34,142.31 176.34,154.95 161.38,154.95 161.38,171.38 176.76,171.38 176.76,183.94 176.76,183.94  "/>
	<polygon points="143.97,183.94 129.98,183.94 120.08,156.68 119.99,156.68 119.99,183.94 106.68,183.94 106.68,116.51    119.99,116.51 119.99,141.42 120.08,141.42 129.73,116.51 143.59,116.51 130.53,147.57 143.97,183.94 143.97,183.94  "/>
	<polygon points="57.62,183.94 44.39,183.94 44.39,116.51 57.62,116.51 57.62,183.94 57.62,183.94  "/>
	<path d="M310.94,149.3c0-18.63-1.69-21.66-5.48-21.66c-4,0-5.39,3.37-5.39,21.96c0,19.76,1.27,22.93,5.48,22.93   C309.6,172.52,310.94,169.61,310.94,149.3L310.94,149.3L310.94,149.3z M324.34,149.39c0,24.04-3.59,33.57-15.48,35.03h-7   c-11.33-1.45-15.2-10.83-15.2-34.81c0-25.16,4.63-34.01,18.88-34.01C320.04,115.59,324.34,124.95,324.34,149.39L324.34,149.39   L324.34,149.39L324.34,149.39z"/>
	<path d="M87.33,136.74c0-6.07-0.84-7.92-3.37-7.92h-5.05v15.63h4.8C85.81,144.46,87.33,142.85,87.33,136.74L87.33,136.74   L87.33,136.74z M101.58,183.94H88.35l-9.27-28.32h-0.16v28.32H65.67v-67.43H85.6c10.12,0,15.09,5.31,15.09,19.64   c0,11.54-3.12,16.1-9.31,18.37L101.58,183.94L101.58,183.94L101.58,183.94L101.58,183.94z"/>
	<path d="M25.21,163.21c0-7.34-1.43-8.77-3.79-8.77h-5.69v17.28h5.35C23.78,171.72,25.21,170.29,25.21,163.21L25.21,163.21   L25.21,163.21z M24.79,135.56c0-5.39-1.48-6.74-3.2-6.74h-5.86v14.37h5.35C23.57,143.19,24.79,142.22,24.79,135.56L24.79,135.56   L24.79,135.56L24.79,135.56z M38.36,164.89c0,14.84-3.54,19.05-15,19.05H2.5v-67.43h21.58c9.78,0,14.08,3.04,14.08,17.03   c0,8.21-0.85,12.39-5.31,14.67v0.08C37.22,150.48,38.36,153.35,38.36,164.89L38.36,164.89L38.36,164.89L38.36,164.89z"/>
	<path d="M392.15,149.3h0.61v-1.36h0.47c0.32,0,0.55,0.04,0.68,0.11c0.22,0.13,0.33,0.4,0.33,0.79v0.27l0.02,0.11   c0,0.02,0,0.02,0.01,0.04c0,0.02,0,0.03,0,0.03h0.56l-0.01-0.04c-0.01-0.03-0.03-0.08-0.04-0.18c0-0.09,0-0.18,0-0.26v-0.25   c0-0.17-0.07-0.35-0.19-0.54c-0.12-0.18-0.32-0.3-0.59-0.34c0.21-0.04,0.38-0.09,0.5-0.17c0.22-0.15,0.34-0.37,0.34-0.68   c0-0.44-0.18-0.73-0.53-0.88c-0.2-0.08-0.52-0.12-0.94-0.12h-1.21V149.3L392.15,149.3L392.15,149.3z M393.89,147.44   c-0.13,0.05-0.33,0.08-0.58,0.08h-0.54v-1.26h0.52c0.33,0,0.58,0.04,0.73,0.13c0.16,0.09,0.23,0.25,0.23,0.51   C394.24,147.16,394.12,147.34,393.89,147.44L393.89,147.44L393.89,147.44L393.89,147.44z M395.65,145.36   c-0.61-0.61-1.36-0.92-2.23-0.92c-0.87,0-1.6,0.31-2.22,0.92c-0.61,0.62-0.92,1.36-0.92,2.22c0,0.87,0.31,1.62,0.92,2.23   c0.61,0.62,1.35,0.93,2.22,0.93c0.87,0,1.62-0.31,2.23-0.93c0.61-0.62,0.92-1.36,0.92-2.23   C396.57,146.72,396.27,145.97,395.65,145.36L395.65,145.36L395.65,145.36L395.65,145.36z M395.34,145.67   c0.52,0.53,0.79,1.17,0.79,1.92c0,0.75-0.26,1.4-0.79,1.93c-0.53,0.53-1.17,0.79-1.92,0.79s-1.39-0.26-1.91-0.79   c-0.53-0.53-0.78-1.17-0.78-1.93c0-0.75,0.26-1.39,0.79-1.92c0.53-0.53,1.16-0.79,1.91-0.79S394.81,145.14,395.34,145.67   L395.34,145.67L395.34,145.67L395.34,145.67z"/>
</g>
<style>* { fill: #ffffff; }</style></svg>
