<?xml version="1.0" encoding="utf-8"?>
<!-- Generator: Adobe Illustrator 15.0.0, SVG Export Plug-In . SVG Version: 6.00 Build 0)  -->
<!DOCTYPE svg PUBLIC "-//W3C//DTD SVG 1.1//EN" "http://www.w3.org/Graphics/SVG/1.1/DTD/svg11.dtd">
<svg version="1.1" xmlns="http://www.w3.org/2000/svg" xmlns:xlink="http://www.w3.org/1999/xlink" x="0px" y="0px"
	 width="506.975px" height="124.494px" viewBox="0 0 506.975 124.494" enable-background="new 0 0 506.975 124.494"
	 xml:space="preserve">
<g id="Layer_1">
	<polygon points="73.693,89.38 73.693,86.626 72.664,86.626 72.664,86.257 75.139,86.257 75.139,86.626 74.106,86.626 74.106,89.38 
			"/>
	<path d="M75.55,89.38v-3.123h0.622l0.739,2.211c0.068,0.206,0.118,0.36,0.149,0.462c0.036-0.114,0.091-0.281,0.167-0.501
		l0.748-2.173h0.556v3.123h-0.399v-2.614l-0.907,2.614h-0.373l-0.903-2.659v2.659H75.55z"/>
	<path fill-rule="evenodd" clip-rule="evenodd" d="M75.401,14.408c27.98,0,50.671,22.691,50.671,50.671
		c0,27.98-22.691,50.671-50.671,50.671S24.729,93.06,24.729,65.08C24.729,37.099,47.42,14.408,75.401,14.408L75.401,14.408z
		 M75.401,22.176c-23.691,0-42.903,19.213-42.903,42.904s19.212,42.904,42.903,42.904s42.903-19.213,42.903-42.904
		S99.092,22.176,75.401,22.176z"/>
</g>
<g id="Foreground">
	<polygon fill-rule="evenodd" clip-rule="evenodd" points="75.415,29.478 75.415,29.478 83.302,53.751 108.826,53.751 
		88.177,68.754 96.064,93.029 75.415,78.026 54.766,93.029 62.653,68.754 42.004,53.751 67.528,53.751 	"/>
	<path fill-rule="evenodd" clip-rule="evenodd" d="M487.116,47.278h1.114c0.57,0,1.188,0.11,1.188,0.824
		c0,0.85-0.681,0.887-1.423,0.887h-0.88V47.278L487.116,47.278z M486.274,51.98L486.274,51.98h0.842v-2.314h0.892l1.474,2.314h0.903
		l-1.548-2.375c0.806-0.086,1.425-0.492,1.425-1.465c0-1.034-0.607-1.539-1.896-1.539h-2.092V51.98L486.274,51.98z M484.257,49.272
		c0,2.252,1.659,3.951,3.825,3.951c2.142,0,3.801-1.699,3.801-3.951c0-2.204-1.659-3.902-3.801-3.902
		C485.916,45.37,484.257,47.068,484.257,49.272L484.257,49.272L484.257,49.272z M483.415,49.272L483.415,49.272
		c0,2.646,2.129,4.628,4.667,4.628c2.525,0,4.643-1.981,4.643-4.628c0-2.598-2.117-4.58-4.643-4.58
		C485.544,44.693,483.415,46.675,483.415,49.272z"/>
	<path fill-rule="evenodd" clip-rule="evenodd" d="M432.966,44.668L432.966,44.668v7.694h-19.381v2.444v2.896v3.349h2.218h8.605
		h2.491c4.525,0,8.193,3.647,8.193,8.146v2.896v2.263v1.991c0,4.499-3.668,8.146-8.193,8.146h-22.519v-7.694h22.246v-2.444v-2.263
		v-3.349h-2.219h-8.605h-2.49c-4.525,0-8.193-3.647-8.193-8.147v-2.896v-2.896v-1.992c0-4.499,3.668-8.146,8.193-8.146H432.966
		L432.966,44.668z M477.391,84.495L477.391,84.495h-19.654c-4.524,0-8.193-3.647-8.193-8.146v-5.25V58.064v-5.25
		c0-4.499,3.669-8.146,8.193-8.146h19.654v7.694H458.01v5.702v3.168h19.381v7.694H458.01v2.172v5.703h19.381V84.495L477.391,84.495z
		 M344.662,84.495L344.662,84.495h-19.653c-4.524,0-8.192-3.647-8.192-8.146v-5.25V58.064v-5.25c0-4.499,3.668-8.146,8.192-8.146
		h19.653v7.694h-19.38v5.702v3.168h19.38v7.694h-19.38v2.172v5.703h19.38V84.495L344.662,84.495z M231.599,44.668L231.599,44.668
		h4.278h14.384c4.524,0,8.192,3.647,8.192,8.146v31.681h-8.466V52.362h-14.11v32.133h-8.466V44.668H231.599L231.599,44.668z
		 M368.332,61.232L368.332,61.232h15.012v-1.539v-5.793v-1.539h-15.012V61.232L368.332,61.232z M391.81,53.901L391.81,53.901v5.793
		v1.086c0,4.165-3.144,7.6-7.201,8.087l7.938,15.628h-9.53l-6.924-15.568h-7.761v15.568h-8.467V44.668h4.098h4.369h15.285
		c4.524,0,8.192,3.647,8.192,8.146V53.901L391.81,53.901z M277.844,44.668L277.844,44.668l9.468,33.128l10.014-33.128h9.649
		l-12.927,39.827h-13.291l-12.381-39.827H277.844L277.844,44.668z M138.471,52.814L138.471,52.814c0-4.499,3.668-8.146,8.193-8.146
		h21.029v7.694h-20.756v24.439h20.756v7.694h-21.029c-4.525,0-8.193-3.647-8.193-8.146V52.814L138.471,52.814z M180.619,52.814
		L180.619,52.814c0-4.499,3.668-8.146,8.193-8.146h17.479c4.525,0,8.193,3.647,8.193,8.146v23.534c0,4.499-3.668,8.146-8.193,8.146
		h-17.479c-4.525,0-8.193-3.647-8.193-8.146V52.814L180.619,52.814z M189.085,52.362v24.439h16.933V52.362H189.085L189.085,52.362z"
		/>
</g>
</svg>
