<?xml version="1.0" encoding="utf-8"?>
<!-- Generator: Adobe Illustrator 23.1.1, SVG Export Plug-In . SVG Version: 6.00 Build 0)  -->
<svg xmlns="http://www.w3.org/2000/svg" xmlns:xlink="http://www.w3.org/1999/xlink" version="1.1" id="Layer_1" x="0px" y="0px" viewBox="0 0 400 300" style="enable-background:new 0 0 400 300;" xml:space="preserve">

<g>
	<g>
		<path d="M238.53,112.6l-87.42,95.41h74.77l87.42-95.41L225.87,17.2H151.1L238.53,112.6L238.53,112.6z M151.1,99.67l39.8,12.93    l-39.8,12.93v41.85l-24.6-33.86l-39.8,12.93l24.6-33.86L86.7,78.75l39.8,12.93l24.6-33.86V99.67L151.1,99.67z M219.07,236.84    h35.45v11.82h-23.63v4.73h21.27v10.63h-21.27v5.32h23.63v11.81h-35.45V236.84L219.07,236.84z M87.46,259.1    c0-6.2-5.03-11.22-11.22-11.22c-6.2,0-11.22,5.02-11.22,11.22c0,6.2,5.03,11.22,11.22,11.22C82.44,270.33,87.46,265.3,87.46,259.1    L87.46,259.1z M100.2,259.1c0,12.97-10.75,23.52-23.97,23.52c-13.21,0-23.96-10.55-23.96-23.52c0-12.97,10.75-23.52,23.96-23.52    C89.45,235.58,100.2,246.13,100.2,259.1L100.2,259.1z M352.18,267.79v0.13c0,9.34-7.81,14.89-18.91,14.89    c-8.1,0-16.24-2.55-21.85-7.57l7.15-8.42c4.51,3.59,9.73,5.49,15.01,5.49c3.4,0,5.61-1.18,5.61-3.13v-0.13    c0-1.89-1.73-2.94-7.93-4.38c-9.73-2.22-17.47-4.96-17.47-14.36v-0.13c0-8.49,6.6-14.63,17.57-14.63c7.77,0,13.72,2.09,18.68,6.07    l-7.1,8.38c-4.48-2.65-7.79-3.94-11.84-3.94c-3.07,0-4.32,1.31-4.32,2.94v0.13c0,2.09,1.8,3,8.13,4.44    C345.43,255.84,352.18,259.23,352.18,267.79L352.18,267.79z M362.05,236.84h35.45v11.82h-23.63v4.73h21.27v10.63h-21.27v5.32    h23.63v11.81h-35.45V236.84L362.05,236.84z M291.12,251.02c0-1.42-1.17-2.36-2.61-2.36h-10.43v4.73h10.43    C289.95,253.38,291.12,252.44,291.12,251.02L291.12,251.02z M305.67,281.15h-13.31l-7.61-15.43c-0.3-0.43-0.8-0.52-1.33-0.52    h-5.33v15.95h-11.82v-44.31h22.62c7.67,0,14.1,5.72,14.65,13.08c0.4,5.46-2.33,10.4-7.03,13.14L305.67,281.15L305.67,281.15z     M196.3,236.84h13.59l-14.45,44.31H176.1l-14.45-44.31h13.58l9.84,31.47c0.14,0.44,0.49,0.47,0.7,0.47c0.2,0,0.69-0.03,0.69-0.46    v0.08L196.3,236.84L196.3,236.84z M140.7,236.84h11.81v44.31H139l-17.8-24.81v24.81h-11.82v-44.31h12.13l19.18,25.03V236.84    L140.7,236.84z M15.51,259.09c0,6.15,5.3,11.35,11.57,11.35c3.4,0,6.67-1.58,8.98-4.35l0.83-0.99l10.57,7.26l-0.97,1.19    c-4.68,5.76-11.75,9.06-19.4,9.06c-13.56,0-24.58-10.55-24.58-23.52c0-12.97,11.03-23.52,24.58-23.52    c7.71,0,14.82,3.35,19.51,9.19l0.95,1.19l-10.57,7.27l-0.83-1.01c-2.27-2.79-5.66-4.45-9.06-4.45    C20.81,247.75,15.51,252.94,15.51,259.09L15.51,259.09z"/>
	</g>
</g>
<style>* { fill: #ffffff; }</style></svg>
